# xmcd
#
# Track frame offsets:
#	150
#	11530
#	27793
#	38345
#	57360
#	71212
#	87603
#	104510
#	121118
#
# Disc length: 1853 seconds
#
# Revision: 1
# Processed by: cddbd v1.4PL0 Copyright (c) Steve Scherf et al.
# Submitted via: EasyCDDAExtractor 5.0.6
#
DISCID=6f073b09
DTITLE=J.B. and Melanie O'Neal - After The Harvest
DYEAR=1900
DGENRE=gospel
TTITLE0=What Would You Do?
TTITLE1=Higher Ground
TTITLE2=Puttin' My Foot Down
TTITLE3=Wife of My Youth
TTITLE4=R.S.V.P.
TTITLE5=After The Harvest
TTITLE6=God is Good
TTITLE7=Ain't No Grave
TTITLE8=Somebody's Prayin'
EXTD=
EXTT0=
EXTT1=
EXTT2=
EXTT3=
EXTT4=
EXTT5=
EXTT6=
EXTT7=
EXTT8=
PLAYORDER=
